<svg width="133" height="48" viewBox="0 0 133 48" fill="none" xmlns="http://www.w3.org/2000/svg">
<path d="M15.1183 44.8713L4.77733 24.0223L19.4368 16.7512L21.6989 21.312L12.6996 25.7756L14.477 29.359L22.5804 25.3397L24.8425 29.9005L16.7391 33.9197L20.7785 42.0639L15.1183 44.8713Z" fill="#950000"/>
<path d="M31.0053 12.9236L38.3602 35.0036L32.4089 36.986L25.0541 14.9059L31.0053 12.9236Z" fill="#950000"/>
<path d="M39.7258 34.6859L35.5486 17.7386L41.639 16.2374L45.8163 33.1847L39.7258 34.6859ZM38.1587 15.2227C37.3348 15.4257 36.5616 15.3276 35.839 14.9284C35.1164 14.5291 34.6608 13.947 34.4722 13.182C34.2837 12.417 34.4165 11.6898 34.8708 11.0005C35.3251 10.3111 35.9642 9.8649 36.788 9.66184C37.6192 9.45696 38.3924 9.55507 39.1076 9.95615C39.8303 10.3554 40.2858 10.9375 40.4744 11.7025C40.663 12.4675 40.5301 13.1947 40.0758 13.884C39.6289 14.5716 38.9898 15.0178 38.1587 15.2227Z" fill="#950000"/>
<path d="M50.6726 14.7877L53.8037 19.8803L55.8675 14.2065L62.0561 13.5142L58.3737 22.7079L64.2226 30.8352L58.0791 31.5225L54.5264 26.34L52.297 32.1694L46.0632 32.8668L50.0167 23.6428L44.4388 15.4851L50.6726 14.7877Z" fill="#950000"/>
<path d="M71.6824 21.7127L70.9448 31.5031L64.6898 31.0319L66.4381 7.82495L72.4664 8.27909L71.7801 17.3896L71.9614 17.4033C72.4379 16.3224 73.1565 15.5066 74.1173 14.9561C75.0786 14.3979 76.2013 14.1672 77.4856 14.2639C78.7169 14.3567 79.7648 14.7167 80.6292 15.3441C81.5012 15.9719 82.1495 16.7957 82.5741 17.8153C83.0062 18.8355 83.1707 19.9799 83.0676 21.2485L82.231 32.3534L75.976 31.8821L76.7136 22.0917C76.786 21.2311 76.6216 20.5387 76.2205 20.0147C75.8269 19.4912 75.2297 19.1993 74.4289 19.139C73.9228 19.1009 73.4685 19.1806 73.0662 19.3782C72.672 19.5688 72.3534 19.8639 72.1106 20.2635C71.8759 20.6561 71.7332 21.1391 71.6824 21.7127Z" fill="#950000"/>
<path d="M96.701 28.4899L99.3317 19.0307L105.375 20.7115L100.698 37.5278L94.9614 35.9323L95.8505 32.7355L95.6753 32.6867C95.012 33.6582 94.1399 34.3199 93.0591 34.672C91.9803 35.0167 90.8132 35.0145 89.5578 34.6654C88.3827 34.3386 87.4287 33.7823 86.6958 32.9966C85.9701 32.2129 85.4947 31.2787 85.2696 30.1938C85.0518 29.111 85.1097 27.9555 85.4434 26.7273L88.4273 15.9981L94.4707 17.6788L91.84 27.138C91.6159 27.9721 91.6459 28.6842 91.93 29.2743C92.2214 29.8665 92.7466 30.2681 93.5056 30.4792C94.0093 30.6193 94.473 30.6342 94.8968 30.5241C95.3299 30.4086 95.6998 30.1812 96.0065 29.8419C96.3225 29.4973 96.554 29.0467 96.701 28.4899Z" fill="#950000"/>
<path d="M101.74 38.0926L112.357 17.3826L117.939 20.2442L113.895 28.1317L113.976 28.1732C114.448 27.7511 114.991 27.4211 115.607 27.1833C116.226 26.9389 116.893 26.8338 117.608 26.8681C118.326 26.8956 119.069 27.1064 119.837 27.5004C120.862 28.0257 121.696 28.7981 122.34 29.8176C122.99 30.8406 123.305 32.0872 123.283 33.5575C123.268 35.0312 122.781 36.7051 121.82 38.5792C120.901 40.3725 119.859 41.7156 118.694 42.6085C117.537 43.5049 116.344 44.0045 115.117 44.1073C113.896 44.2136 112.733 43.9834 111.627 43.4166C110.899 43.0433 110.309 42.5919 109.857 42.0622C109.415 41.5292 109.097 40.9534 108.903 40.3348C108.72 39.7129 108.655 39.0837 108.709 38.4473L108.588 38.3851L107.281 40.9334L101.74 38.0926ZM111.182 33.1257C110.795 33.8807 110.557 34.5848 110.469 35.2378C110.392 35.8875 110.457 36.4574 110.666 36.9474C110.884 37.4341 111.25 37.8088 111.762 38.0714C112.274 38.3341 112.784 38.4121 113.29 38.3054C113.806 38.1954 114.298 37.9157 114.767 37.4664C115.246 37.0138 115.682 36.4033 116.076 35.6347C116.47 34.8662 116.709 34.1588 116.794 33.5125C116.888 32.8629 116.828 32.2999 116.612 31.8234C116.407 31.3436 116.048 30.9724 115.536 30.7097C115.024 30.447 114.506 30.369 113.983 30.4755C113.471 30.5788 112.971 30.855 112.486 31.3041C112.01 31.75 111.576 32.3571 111.182 33.1257Z" fill="#950000"/>
</svg>
